<?xml version="1.0" encoding="UTF-8" standalone="no"?>
<!DOCTYPE svg PUBLIC "-//W3C//DTD SVG 1.1//EN" "http://www.w3.org/Graphics/SVG/1.1/DTD/svg11.dtd">
<svg width="100%" height="100%" viewBox="0 0 437 445" version="1.1" xmlns="http://www.w3.org/2000/svg" xmlns:xlink="http://www.w3.org/1999/xlink" xml:space="preserve" xmlns:serif="http://www.serif.com/" style="fill-rule:evenodd;clip-rule:evenodd;stroke-linejoin:round;stroke-miterlimit:2;">
    <g transform="matrix(1,0,0,1,0.293156,0.306641)">
        <path d="M260.184,0.383C257.854,1.043 255.907,4.589 256.394,7.266C256.916,10.082 258.515,11.959 260.74,12.411L261.783,12.62L261.713,86.323L261.609,160.061L259.975,159.957L258.306,159.852L258.306,171.395L244.748,171.395L244.678,165.728L244.574,160.096L240.75,160.026L240.645,120.811C240.576,82.082 240.576,81.63 241.271,80.761C242.21,79.544 242.766,77.319 242.488,75.824C242.14,73.842 240.75,71.791 239.324,71.096C237.621,70.296 234.179,70.505 232.858,71.443C230.598,73.112 229.729,76.797 230.946,79.648C231.641,81.386 233.588,82.777 235.535,83.02L237.099,83.194L237.03,121.575L236.926,159.991L233.971,160.061L231.015,160.096L230.911,165.728L230.842,171.395L217.318,171.395L217.318,160.096L211.547,160.096L211.373,135.065L211.199,110.033L192.356,109.929L173.479,109.859L173.479,57.363L174.452,55.903C175.252,54.652 175.391,54.095 175.391,51.975C175.391,49.785 175.287,49.333 174.418,48.22C173.096,46.482 171.81,45.891 169.377,45.891C167.812,45.891 167.047,46.099 166.143,46.69C163.814,48.22 162.736,52.009 163.884,54.686C164.475,56.112 166.526,57.92 167.882,58.233L168.959,58.476L168.959,113.336L207.549,113.336L207.549,160.096L203.899,160.096L203.794,165.728L203.725,171.395L190.166,171.395L190.097,165.728L189.992,160.096L186.69,160.096L186.69,131.066L142.642,131.066L141.808,130.163C140.521,128.772 139.27,128.285 137.045,128.285C135.48,128.285 134.716,128.459 133.812,129.085C129.987,131.657 130.196,137.881 134.194,140.001C137.984,142.018 142.468,139.897 143.129,135.76L143.337,134.543L181.823,134.543L181.753,147.267L181.649,160.026L179.215,160.061L176.782,160.096L176.677,165.728L176.608,171.395L163.049,171.395L162.98,165.728L162.875,160.096L161.833,160.096L160.79,160.061L160.685,153.734L160.616,147.406L84.653,147.406L82.915,146.502C78.639,144.312 74.05,147.163 74.05,152.03C74.05,154.186 74.711,155.681 76.24,157.036C79.474,159.887 84.793,158.149 85.94,153.873L86.357,152.273L156.131,152.273L156.027,156.132L155.922,159.991L152.62,160.026L149.317,160.096L149.213,165.728L149.143,171.395L132.456,171.395L132.456,195.383L120.983,195.383L120.983,198.164L48.776,198.164L47.629,196.739C44.361,192.671 38.172,193.923 36.851,198.929C36.121,201.606 37.199,204.457 39.598,206.056C40.502,206.647 41.266,206.856 42.761,206.856C45.091,206.856 46.62,205.986 47.941,203.97L48.776,202.684L120.983,202.684L120.983,208.941L132.456,208.941L132.456,222.5L120.983,222.5L120.983,227.367L9.039,227.367L9.039,162.703L9.908,162.147C11.334,161.208 12.272,158.809 12.098,156.411C11.925,154.255 11.299,153.038 9.7,151.822C7.753,150.396 4.415,150.396 2.468,151.822C0.452,153.282 -0.487,156.654 0.382,159.261C0.834,160.582 2.573,162.599 3.546,162.912C4.137,163.086 4.172,164.685 4.241,197.573L4.346,232.061L62.647,232.165L120.983,232.234L120.983,236.406L132.456,236.406L132.456,249.965L121.018,249.965L120.914,251.599L120.809,253.268L84.758,253.372L48.741,253.441L46.586,256.153L46.586,307.606L45.369,307.815C41.545,308.545 39.528,314.073 41.857,317.48C43.074,319.253 44.291,319.948 46.516,320.122C49.993,320.365 52.009,318.905 52.913,315.498C53.365,313.76 52.913,311.152 51.939,310.075C51.522,309.623 51.453,305.729 51.453,283.896C51.453,266.896 51.348,258.031 51.105,257.579C50.723,256.918 51.244,256.918 85.87,256.918L120.983,256.918L120.983,263.523L132.456,263.523L132.456,283.34L153.315,283.34L153.315,294.813L156.096,294.813L156.096,321.895C156.096,348.734 156.096,348.977 155.366,349.881L154.671,350.785L131.83,350.785L108.989,350.75L108.294,349.673C107.251,348.004 105.582,347.204 103.253,347.204C99.637,347.204 97.239,349.673 97.204,353.393C97.169,360.241 105.86,362.258 108.815,356.104L109.685,354.262L156.513,354.262L158.565,352.489L160.616,350.716L160.616,294.813L166.873,294.813L166.873,283.34L180.432,283.34L180.432,288.937C180.432,294.222 180.467,294.534 181.127,294.708C181.823,294.882 181.823,295.195 181.823,357.912L181.823,420.977L180.919,421.672C180.015,422.402 179.667,422.402 161.798,422.402C150.325,422.402 143.581,422.263 143.581,422.055C143.581,421.429 141.321,419.169 140.208,418.717C137.427,417.535 134.02,418.648 132.525,421.186C131.378,423.202 131.552,426.644 132.908,428.452C134.333,430.294 135.619,430.85 138.157,430.677C140.73,430.538 142.19,429.634 143.129,427.617L143.755,426.261L162.563,426.227L181.371,426.227L183.943,424.384L186.516,422.541L186.62,358.677L186.69,294.847L190.444,294.743L194.164,294.639L194.269,288.972L194.338,283.34L207.897,283.34L207.897,294.813L211.373,294.813L211.373,400.465L209.913,400.882C206.089,401.891 204.559,406.48 206.645,410.513C207.757,412.668 210.713,413.746 213.494,413.016C217.527,411.938 219.161,406.549 216.553,402.899C215.927,401.995 215.893,400.43 215.893,348.386L215.893,294.813L221.455,294.813L221.455,283.34L235.014,283.34L235.014,294.813L240.576,294.813L240.576,364.17C240.576,432.345 240.576,433.493 239.915,433.875C239.463,434.084 231.537,434.223 216.588,434.223C194.095,434.223 193.956,434.223 192.982,433.493C190.271,431.511 186.238,432.206 184.117,435.022C183.005,436.517 182.935,440.237 183.978,442.045C185.403,444.513 188.949,445.661 191.661,444.513C193.191,443.888 194.964,441.802 195.242,440.307L195.451,439.09L240.68,439.09L243.044,437.143L245.443,435.196L245.443,294.813L248.572,294.813L248.572,283.34L262.13,283.34L262.2,289.007L262.304,294.639L275.863,294.639L275.967,288.972L276.037,283.34L289.595,283.34L289.595,294.813L303.154,294.813L303.154,283.34L316.712,283.34L316.782,288.972L316.886,294.639L323.561,294.743L330.27,294.813L330.34,289.18L330.444,283.514L344.107,283.409L357.735,283.34L357.735,249.27L368.86,249.27L368.86,245.098L414.75,245.098L414.75,298.637L413.394,299.471C410.717,301.175 409.814,305.068 411.378,308.058C413.394,311.848 418.957,312.3 421.564,308.858C422.468,307.676 422.572,307.293 422.572,304.895C422.572,302.496 422.468,302.113 421.564,300.931C421.008,300.201 420.035,299.402 419.409,299.123L418.227,298.637L418.157,269.503L418.053,240.404L393.474,240.3L368.86,240.231L368.86,235.537L363.298,235.641L357.735,235.746L357.735,221.805L368.825,221.805L368.93,218.745L369.034,215.721L396.881,215.616L424.728,215.547L425.354,216.972C427.474,221.631 434.184,221.492 436.339,216.764C438.599,211.792 434.532,206.647 429.352,207.898C427.822,208.281 425.527,209.95 425.527,210.714C425.527,210.888 413.568,210.993 397.298,210.958L369.034,210.854L368.93,209.532L368.825,208.246L357.735,208.246L357.735,171.395L326.446,171.395L326.377,165.728C326.307,161.452 326.168,160.131 325.855,160.165C325.508,160.235 325.403,153.768 325.403,128.633L325.403,96.996L387.946,96.996L388.607,98.491C389.58,100.681 391.11,101.655 393.891,101.794C395.803,101.898 396.325,101.794 397.333,101.099C399.488,99.638 399.975,98.665 399.975,95.675C399.975,92.546 399.245,91.19 397.02,90.043C394.586,88.792 391.84,89.209 389.893,91.121L388.815,92.129L355.302,92.199L321.753,92.303L321.649,126.199L321.579,160.096L317.233,159.991L312.888,159.887L312.888,171.395L299.156,171.395L299.156,160.096L297.591,160.061L296.027,160.026L295.922,105.062L295.853,50.063L321.127,49.993L346.402,49.889L346.297,34.383L346.193,18.878L347.375,18.043C348.974,16.896 349.635,16.027 350.087,14.358C351.164,10.569 348.696,6.71 344.941,6.327C342.682,6.119 340.978,6.71 339.692,8.17C336.945,11.299 337.745,16.27 341.291,18.148L342.786,18.947L342.786,46.656L317.06,46.551L291.333,46.482L291.229,103.219L291.159,159.991L288.378,160.026L285.597,160.096L285.493,165.728L285.423,171.395L271.865,171.395L271.795,165.728L271.691,160.096L269.153,160.061L266.65,159.991L266.65,85.697C266.65,11.994 266.65,11.403 267.345,10.43C268.423,8.9 268.875,6.362 268.423,4.589C267.45,1.008 264.043,-0.73 260.184,0.383Z" style="fill:white;fill-rule:nonzero;"/>
    </g>
    <g transform="matrix(1,0,0,1,0.293156,0.306641)">
        <path d="M266.65,295.577C266.65,295.647 266.615,317.167 266.546,343.45L266.476,391.218L264.946,391.67C262.165,392.469 260.67,394.555 260.635,397.684C260.635,400.361 261.748,402.343 263.938,403.49C265.294,404.185 268.18,404.116 269.744,403.281C273.151,401.578 273.916,396.12 271.169,393.304L270.126,392.226L270.057,343.971L269.953,295.682L268.319,295.577C267.38,295.508 266.65,295.508 266.65,295.577Z" style="fill:white;fill-rule:nonzero;"/>
    </g>
    <g transform="matrix(1,0,0,1,0.293156,0.306641)">
        <path d="M295.853,295.473L295.853,401.543L326.203,401.543L356.518,401.578L357.214,403.003C358.291,405.263 359.404,405.889 362.428,405.889C364.48,405.889 365.175,405.75 365.975,405.159C369.59,402.482 369.277,396.293 365.383,394.312C364.514,393.895 363.228,393.547 362.428,393.547C360.655,393.582 358.291,394.625 357.561,395.772L356.97,396.676L300.72,396.676L300.65,346.161L300.546,295.682L298.217,295.577L295.853,295.473Z" style="fill:white;fill-rule:nonzero;"/>
    </g>
    <g transform="matrix(1,0,0,1,0.293156,0.306641)">
        <path d="M321.753,295.925C321.649,296.168 321.614,313.134 321.649,333.576L321.753,370.775L354.154,370.949L386.59,371.123L387.355,372.688C388.502,374.947 389.997,375.816 392.674,375.816C395.038,375.816 396.498,375.086 397.854,373.279C398.967,371.784 399.036,368.064 397.993,366.256C396.568,363.788 393.022,362.64 390.31,363.788C389.198,364.239 386.938,366.499 386.938,367.125C386.938,367.334 375.709,367.473 356.171,367.473L325.403,367.473L325.334,331.56L325.229,295.682L323.561,295.577C322.448,295.508 321.857,295.612 321.753,295.925Z" style="fill:white;fill-rule:nonzero;"/>
    </g>
</svg>
